<svg width="47" height="71" viewBox="0 0 47 71" fill="none" xmlns="http://www.w3.org/2000/svg">
<path d="M23.0081 50.3318C22.931 50.3535 22.8493 50.3535 22.7722 50.3318L0.297566 38.849C0.172469 38.7717 0.0808319 38.652 0.040217 38.5125C-0.0134057 38.3845 -0.0134057 38.241 0.040217 38.113L22.5148 0.257494C22.5623 0.179037 22.6298 0.114041 22.7106 0.0688982C22.7914 0.0237558 22.8829 0 22.9759 0C23.0689 0 23.1603 0.0237558 23.2412 0.0688982C23.322 0.114041 23.3895 0.179037 23.437 0.257494L45.9116 38.113C45.9795 38.2413 45.9928 38.3908 45.9486 38.5287C45.9044 38.6667 45.8062 38.7818 45.6757 38.849L23.2225 50.3318C23.1517 50.3449 23.0789 50.3449 23.0081 50.3318ZM1.30549 38.0919L23.0081 49.2172L44.7321 38.0919L23.0081 1.41419L1.30549 38.0919Z" fill="#3EAD4A"/>
<path d="M23.0081 70.8579C22.9266 70.8604 22.8457 70.8446 22.7713 70.8118C22.697 70.779 22.6313 70.7301 22.5792 70.6686L0.126029 42.1298C0.0546532 42.0356 0.0161133 41.9213 0.0161133 41.8039C0.0161133 41.6865 0.0546532 41.5721 0.126029 41.4779C0.205127 41.385 0.314451 41.3218 0.435554 41.2988C0.556657 41.2758 0.68214 41.2945 0.790842 41.3517L23.0081 52.7083L45.2253 41.3517C45.3329 41.2934 45.4577 41.2731 45.5787 41.2943C45.6997 41.3155 45.8096 41.3768 45.8901 41.468C45.9705 41.5592 46.0165 41.6747 46.0204 41.7952C46.0243 41.9157 45.9859 42.0338 45.9116 42.1298L23.437 70.6686C23.3849 70.7301 23.3191 70.779 23.2448 70.8118C23.1705 70.8446 23.0895 70.8604 23.0081 70.8579ZM2.46357 43.3917L23.0081 69.4699L43.5526 43.3917L23.2654 53.7809C23.1898 53.8214 23.105 53.8426 23.0188 53.8426C22.9326 53.8426 22.8478 53.8214 22.7722 53.7809L2.46357 43.3917Z" fill="#3EAD4A"/>
<path d="M23.5654 0.299316H22.4932V49.7427H23.5654V0.299316Z" fill="#3EAD4A"/>
<path d="M45.2466 38.6808L23.0293 27.3662L0.812088 38.6808L0.318848 37.7344L23.0293 26.1675L45.7398 37.7344L45.2466 38.6808Z" fill="#3EAD4A"/>
<path d="M23.5654 53.3184H22.4932V70.3533H23.5654V53.3184Z" fill="#3EAD4A"/>
</svg>
