<svg width="54" height="62" viewBox="0 0 54 62" fill="none" xmlns="http://www.w3.org/2000/svg">
<path d="M47.5648 26.4717H6.46081C3.9009 26.4717 1.82568 28.5469 1.82568 31.1068V55.4194C1.82568 57.9793 3.9009 60.0545 6.46081 60.0545H47.5648C50.1247 60.0545 52.1999 57.9793 52.1999 55.4194V31.1068C52.1999 28.5469 50.1247 26.4717 47.5648 26.4717Z" stroke="#3EAD4A" stroke-width="2" stroke-miterlimit="10"/>
<path d="M12.998 26.4714V15.0147C12.998 11.3016 14.4716 7.7402 17.0951 5.11255C19.7187 2.48491 23.2777 1.00579 26.9909 1V1C30.7078 1 34.2725 2.47657 36.9008 5.10485C39.5291 7.73312 41.0056 11.2978 41.0056 15.0147V26.4714" stroke="#3EAD4A" stroke-width="2" stroke-miterlimit="10"/>
<path d="M23.0988 51.6367V43.4815C22.2252 42.5452 21.7474 41.3075 21.7651 40.0271C21.7651 39.3494 21.8986 38.6785 22.1579 38.0524C22.4172 37.4264 22.7973 36.8576 23.2764 36.3785C23.7555 35.8993 24.3243 35.5193 24.9504 35.26C25.5764 35.0006 26.2474 34.8672 26.925 34.8672V34.8672C27.6026 34.8672 28.2735 35.0006 28.8996 35.26C29.5256 35.5193 30.0944 35.8993 30.5735 36.3785C31.0526 36.8576 31.4327 37.4264 31.6921 38.0524C31.9514 38.6785 32.0849 39.3494 32.0849 40.0271C32.0944 41.3101 31.6088 42.5474 30.7292 43.4815V51.6367H22.9239H23.0988Z" stroke="#3EAD4A" stroke-width="2" stroke-miterlimit="10"/>
</svg>
